PathFileType	4	(X/Y/Z)	markers.trc
DataRate	CameraRate	NumFrames	NumMarkers	Units	OrigDataRate	OrigDataStartFrame	OrigNumFrames
30	30	4	70	mm	30	169	450
Frame#	Time	nose			left-eye			right-eye			left-ear			right-ear			left-shoulder			right-shoulder			left-elbow			right-elbow			left-hip			right-hip			left-knee			right-knee			left-ankle			right-ankle			left-big-toe-tip			left-small-toe-tip			left-heel			right-big-toe-tip			right-small-toe-tip			right-heel			right-thumb-tip			right-thumb-first-joint			right-thumb-second-joint			right-thumb-third-joint			right-index-tip			right-index-first-joint			right-index-second-joint			right-index-third-joint			right-middle-tip			right-middle-first-joint			right-middle-second-joint			right-middle-third-joint			right-ring-tip			right-ring-first-joint			right-ring-second-joint			right-ring-third-joint			right-pinky-tip			right-pinky-first-joint			right-pinky-second-joint			right-pinky-third-joint			right-wrist			left-thumb-tip			left-thumb-first-joint			left-thumb-second-joint			left-thumb-third-joint			left-index-tip			left-index-first-joint			left-index-second-joint			left-index-third-joint			left-middle-tip			left-middle-first-joint			left-middle-second-joint			left-middle-third-joint			left-ring-tip			left-ring-first-joint			left-ring-second-joint			left-ring-third-joint			left-pinky-tip			left-pinky-first-joint			left-pinky-second-joint			left-pinky-third-joint			left-wrist			left-olecranon			right-olecranon			left-cubital-fossa			right-cubital-fossa			left-acromion			right-acromion			neck			
		X1	Y1	Z1	X2	Y2	Z2	X3	Y3	Z3	X4	Y4	Z4	X5	Y5	Z5	X6	Y6	Z6	X7	Y7	Z7	X8	Y8	Z8	X9	Y9	Z9	X10	Y10	Z10	X11	Y11	Z11	X12	Y12	Z12	X13	Y13	Z13	X14	Y14	Z14	X15	Y15	Z15	X16	Y16	Z16	X17	Y17	Z17	X18	Y18	Z18	X19	Y19	Z19	X20	Y20	Z20	X21	Y21	Z21	X22	Y22	Z22	X23	Y23	Z23	X24	Y24	Z24	X25	Y25	Z25	X26	Y26	Z26	X27	Y27	Z27	X28	Y28	Z28	X29	Y29	Z29	X30	Y30	Z30	X31	Y31	Z31	X32	Y32	Z32	X33	Y33	Z33	X34	Y34	Z34	X35	Y35	Z35	X36	Y36	Z36	X37	Y37	Z37	X38	Y38	Z38	X39	Y39	Z39	X40	Y40	Z40	X41	Y41	Z41	X42	Y42	Z42	X43	Y43	Z43	X44	Y44	Z44	X45	Y45	Z45	X46	Y46	Z46	X47	Y47	Z47	X48	Y48	Z48	X49	Y49	Z49	X50	Y50	Z50	X51	Y51	Z51	X52	Y52	Z52	X53	Y53	Z53	X54	Y54	Z54	X55	Y55	Z55	X56	Y56	Z56	X57	Y57	Z57	X58	Y58	Z58	X59	Y59	Z59	X60	Y60	Z60	X61	Y61	Z61	X62	Y62	Z62	X63	Y63	Z63	X64	Y64	Z64	X65	Y65	Z65	X66	Y66	Z66	X67	Y67	Z67	X68	Y68	Z68	X69	Y69	Z69	X70	Y70	Z70	

169	5.600000	0.00000	-392.00000	2560.17400	-20.80000	-412.80000	2560.17400	20.80000	-412.80000	2560.17400	-48.00000	-393.60000	2560.17400	48.00000	-393.60000	2560.17400	-88.00000	-312.00000	2560.17400	88.00000	-312.00000	2560.17400	-126.23300	-168.00000	2560.17400	126.23300	-168.00000	2560.17400	-51.20000	0.00000	2560.17400	51.20000	0.00000	2560.17400	6.15000	164.88300	2560.17400	-6.15000	184.00000	2560.17400	69.87300	328.13900	2560.17400	-69.87300	360.00000	2560.17400	95.36200	355.33900	2560.17400	76.16200	355.33900	2560.17400	57.12800	352.13900	2560.17400	-95.36200	387.20000	2560.17400	-76.16200	387.20000	2560.17400	-57.12800	384.00000	2560.17400	0.00000	0.00000	2600.00000	0.00000	0.00000	2600.00000	0.00000	0.00000	2600.00000	0.00000	0.00000	2600.00000	0.00000	0.00000	2600.00000	0.00000	0.00000	2600.00000	0.00000	0.00000	2600.00000	0.00000	0.00000	2600.00000	0.00000	0.00000	2600.00000	0.00000	0.00000	2600.00000	0.00000	0.00000	2600.00000	0.00000	0.00000	2600.00000	0.00000	0.00000	2600.00000	0.00000	0.00000	2600.00000	0.00000	0.00000	2600.00000	0.00000	0.00000	2600.00000	0.00000	0.00000	2600.00000	0.00000	0.00000	2600.00000	0.00000	0.00000	2600.00000	0.00000	0.00000	2600.00000	170.83900	-35.25600	2560.17400	0.00000	0.00000	2600.00000	0.00000	0.00000	2600.00000	0.00000	0.00000	2600.00000	0.00000	0.00000	2600.00000	0.00000	0.00000	2600.00000	0.00000	0.00000	2600.00000	0.00000	0.00000	2600.00000	0.00000	0.00000	2600.00000	0.00000	0.00000	2600.00000	0.00000	0.00000	2600.00000	0.00000	0.00000	2600.00000	0.00000	0.00000	2600.00000	0.00000	0.00000	2600.00000	0.00000	0.00000	2600.00000	0.00000	0.00000	2600.00000	0.00000	0.00000	2600.00000	0.00000	0.00000	2600.00000	0.00000	0.00000	2600.00000	0.00000	0.00000	2600.00000	0.00000	0.00000	2600.00000	-170.83900	-35.25600	2560.17400	0.00000	0.00000	2600.00000	0.00000	0.00000	2600.00000	0.00000	0.00000	2600.00000	0.00000	0.00000	2600.00000	0.00000	0.00000	2600.00000	0.00000	0.00000	2600.00000	0.00000	-328.00000	2560.17400
170	5.633333	0.00000	-392.00000	2566.28500	-20.80000	-412.80000	2566.28500	20.80000	-412.80000	2566.28500	-48.00000	-393.60000	2566.28500	48.00000	-393.60000	2566.28500	-88.00000	-312.00000	2566.28500	88.00000	-312.00000	2566.28500	-120.36700	-168.00000	2566.28500	120.36700	-168.00000	2566.28500	-51.20000	0.00000	2566.28500	51.20000	0.00000	2566.28500	-2.65000	167.81700	2566.28500	2.65000	184.00000	2566.28500	51.29400	333.02800	2566.28500	-51.29400	360.00000	2566.28500	72.87200	360.22800	2566.28500	53.67200	360.22800	2566.28500	40.50500	357.02800	2566.28500	-72.87200	387.20000	2566.28500	-53.67200	387.20000	2566.28500	-40.50500	384.00000	2566.28500	0.00000	0.00000	2600.00000	0.00000	0.00000	2600.00000	0.00000	0.00000	2600.00000	0.00000	0.00000	2600.00000	0.00000	0.00000	2600.00000	0.00000	0.00000	2600.00000	0.00000	0.00000	2600.00000	0.00000	0.00000	2600.00000	0.00000	0.00000	2600.00000	0.00000	0.00000	2600.00000	0.00000	0.00000	2600.00000	0.00000	0.00000	2600.00000	0.00000	0.00000	2600.00000	0.00000	0.00000	2600.00000	0.00000	0.00000	2600.00000	0.00000	0.00000	2600.00000	0.00000	0.00000	2600.00000	0.00000	0.00000	2600.00000	0.00000	0.00000	2600.00000	0.00000	0.00000	2600.00000	158.12700	-37.21100	2566.28500	0.00000	0.00000	2600.00000	0.00000	0.00000	2600.00000	0.00000	0.00000	2600.00000	0.00000	0.00000	2600.00000	0.00000	0.00000	2600.00000	0.00000	0.00000	2600.00000	0.00000	0.00000	2600.00000	0.00000	0.00000	2600.00000	0.00000	0.00000	2600.00000	0.00000	0.00000	2600.00000	0.00000	0.00000	2600.00000	0.00000	0.00000	2600.00000	0.00000	0.00000	2600.00000	0.00000	0.00000	2600.00000	0.00000	0.00000	2600.00000	0.00000	0.00000	2600.00000	0.00000	0.00000	2600.00000	0.00000	0.00000	2600.00000	0.00000	0.00000	2600.00000	0.00000	0.00000	2600.00000	-158.12700	-37.21100	2566.28500	0.00000	0.00000	2600.00000	0.00000	0.00000	2600.00000	0.00000	0.00000	2600.00000	0.00000	0.00000	2600.00000	0.00000	0.00000	2600.00000	0.00000	0.00000	2600.00000	0.00000	-328.00000	2566.28500
171	5.666667	0.00000	-392.00000	2573.50400	-20.80000	-412.80000	2573.50400	20.80000	-412.80000	2573.50400	-48.00000	-393.60000	2573.50400	48.00000	-393.60000	2573.50400	-88.00000	-312.00000	2573.50400	88.00000	-312.00000	2573.50400	-113.43600	-168.00000	2573.50400	113.43600	-168.00000	2573.50400	-51.20000	0.00000	2573.50400	51.20000	0.00000	2573.50400	-13.04600	171.28200	2573.50400	13.04600	184.00000	2573.50400	29.34800	338.80300	2573.50400	-29.34800	360.00000	2573.50400	46.30500	366.00300	2573.50400	27.10500	366.00300	2573.50400	20.86900	362.80300	2573.50400	-46.30500	387.20000	2573.50400	-27.10500	387.20000	2573.50400	-20.86900	384.00000	2573.50400	0.00000	0.00000	2600.00000	0.00000	0.00000	2600.00000	0.00000	0.00000	2600.00000	0.00000	0.00000	2600.00000	0.00000	0.00000	2600.00000	0.00000	0.00000	2600.00000	0.00000	0.00000	2600.00000	0.00000	0.00000	2600.00000	0.00000	0.00000	2600.00000	0.00000	0.00000	2600.00000	0.00000	0.00000	2600.00000	0.00000	0.00000	2600.00000	0.00000	0.00000	2600.00000	0.00000	0.00000	2600.00000	0.00000	0.00000	2600.00000	0.00000	0.00000	2600.00000	0.00000	0.00000	2600.00000	0.00000	0.00000	2600.00000	0.00000	0.00000	2600.00000	0.00000	0.00000	2600.00000	143.11200	-39.52100	2573.50400	0.00000	0.00000	2600.00000	0.00000	0.00000	2600.00000	0.00000	0.00000	2600.00000	0.00000	0.00000	2600.00000	0.00000	0.00000	2600.00000	0.00000	0.00000	2600.00000	0.00000	0.00000	2600.00000	0.00000	0.00000	2600.00000	0.00000	0.00000	2600.00000	0.00000	0.00000	2600.00000	0.00000	0.00000	2600.00000	0.00000	0.00000	2600.00000	0.00000	0.00000	2600.00000	0.00000	0.00000	2600.00000	0.00000	0.00000	2600.00000	0.00000	0.00000	2600.00000	0.00000	0.00000	2600.00000	0.00000	0.00000	2600.00000	0.00000	0.00000	2600.00000	0.00000	0.00000	2600.00000	-143.11200	-39.52100	2573.50400	0.00000	0.00000	2600.00000	0.00000	0.00000	2600.00000	0.00000	0.00000	2600.00000	0.00000	0.00000	2600.00000	0.00000	0.00000	2600.00000	0.00000	0.00000	2600.00000	0.00000	-328.00000	2573.50400
172	5.700000	0.00000	-392.00000	2581.59400	-20.80000	-412.80000	2581.59400	20.80000	-412.80000	2581.59400	-48.00000	-393.60000	2581.59400	48.00000	-393.60000	2581.59400	-88.00000	-312.00000	2581.59400	88.00000	-312.00000	2581.59400	-105.67000	-168.00000	2581.59400	105.67000	-168.00000	2581.59400	-51.20000	0.00000	2581.59400	51.20000	0.00000	2581.59400	-24.69500	175.16500	2581.59400	24.69500	184.00000	2581.59400	4.75500	345.27500	2581.59400	-4.75500	360.00000	2581.59400	16.53500	372.47500	2581.59400	-2.66500	372.47500	2581.59400	-1.13500	369.27500	2581.59400	-16.53500	387.20000	2581.59400	2.66500	387.20000	2581.59400	1.13500	384.00000	2581.59400	0.00000	0.00000	2600.00000	0.00000	0.00000	2600.00000	0.00000	0.00000	2600.00000	0.00000	0.00000	2600.00000	0.00000	0.00000	2600.00000	0.00000	0.00000	2600.00000	0.00000	0.00000	2600.00000	0.00000	0.00000	2600.00000	0.00000	0.00000	2600.00000	0.00000	0.00000	2600.00000	0.00000	0.00000	2600.00000	0.00000	0.00000	2600.00000	0.00000	0.00000	2600.00000	0.00000	0.00000	2600.00000	0.00000	0.00000	2600.00000	0.00000	0.00000	2600.00000	0.00000	0.00000	2600.00000	0.00000	0.00000	2600.00000	0.00000	0.00000	2600.00000	0.00000	0.00000	2600.00000	126.28500	-42.11000	2581.59400	0.00000	0.00000	2600.00000	0.00000	0.00000	2600.00000	0.00000	0.00000	2600.00000	0.00000	0.00000	2600.00000	0.00000	0.00000	2600.00000	0.00000	0.00000	2600.00000	0.00000	0.00000	2600.00000	0.00000	0.00000	2600.00000	0.00000	0.00000	2600.00000	0.00000	0.00000	2600.00000	0.00000	0.00000	2600.00000	0.00000	0.00000	2600.00000	0.00000	0.00000	2600.00000	0.00000	0.00000	2600.00000	0.00000	0.00000	2600.00000	0.00000	0.00000	2600.00000	0.00000	0.00000	2600.00000	0.00000	0.00000	2600.00000	0.00000	0.00000	2600.00000	0.00000	0.00000	2600.00000	-126.28500	-42.11000	2581.59400	0.00000	0.00000	2600.00000	0.00000	0.00000	2600.00000	0.00000	0.00000	2600.00000	0.00000	0.00000	2600.00000	0.00000	0.00000	2600.00000	0.00000	0.00000	2600.00000	0.00000	-328.00000	2581.59400
